<svg width="225" height="45" viewBox="0 0 225 45" fill="none" xmlns="http://www.w3.org/2000/svg">
<path d="M0.580425 43.671L16.986 36.0345C21.5692 33.9012 24.5 29.3042 24.5 24.2488L24.5 21.327C24.5 16.5117 27.1618 12.0908 31.4175 9.83778L45.0583 2.61621C48.2131 0.946057 51.9158 0.646589 55.2979 1.78806L90 13.4999L101.06 18.7C105.948 20.9981 111.779 19.4723 114.915 15.075V15.075C118.337 10.2764 124.897 8.95978 129.906 12.0662L147 22.6684L171.676 35.5284C173.531 36.4952 175.592 37 177.684 37L192.117 37C193.036 37 193.953 37.0975 194.852 37.2909L224.5 43.671" stroke="#8EECF8" stroke-width="2"/>
</svg>
