<svg width="251" height="53" viewBox="0 0 251 53" fill="none" xmlns="http://www.w3.org/2000/svg">
<path d="M1.58045 51.6711L19.456 26.7709C20.1452 25.8108 20.9621 24.9492 21.8841 24.2099L44.4609 6.10698C46.5784 4.40903 49.1744 3.41647 51.8846 3.2685L76.9821 1.89831C79.3664 1.76813 81.7406 2.2972 83.8441 3.42746L105.918 15.2887C108.022 16.419 110.396 16.948 112.78 16.8179L150.22 14.7738C152.972 14.6236 155.7 15.3516 158.01 16.8526L178.096 29.8995C178.883 30.4107 179.723 30.8351 180.601 31.1655L199.533 38.2858C203.308 39.7054 207.528 39.2929 210.956 37.1691L250.33 12.7762" stroke="#8EECF8" stroke-width="2"/>
</svg>
