<svg width="229" height="65" viewBox="0 0 229 65" fill="none" xmlns="http://www.w3.org/2000/svg">
<path d="M0.580527 63.671L24.8105 54.1784C27.5154 53.1187 29.7562 51.1331 31.1337 48.5754L35.0575 41.2899C38.2935 35.2815 47.0222 35.617 49.7875 41.8559V41.8559C52.5394 48.0643 61.2103 48.4358 64.483 42.4855L72.9289 27.1292C76.1058 21.3531 83.1031 18.8692 89.2108 21.3493L100.74 26.0312C101.578 26.3712 102.378 26.7977 103.126 27.3036L106.783 29.7738C112.089 33.3582 119.215 32.545 123.577 27.8574L144.221 5.6726C147.473 2.17774 152.38 0.746554 157.001 1.94464L173.705 6.27524C175.546 6.7526 177.26 7.62817 178.726 8.8402L191.848 19.6893C195.622 22.8098 200.829 23.5445 205.32 21.59L228.5 11.5" stroke="#8EECF8" stroke-width="2"/>
</svg>
